<svg width="91" height="35" viewBox="0 0 91 35" fill="none" xmlns="http://www.w3.org/2000/svg">
<path d="M42.3907 25.4249C41.0907 25.4249 39.9907 25.1249 38.9907 24.6249C37.9907 24.1249 37.2907 23.3249 36.7907 22.4249C36.2907 21.5249 35.9907 20.4249 35.9907 19.3249C35.9907 18.0249 36.2907 16.8249 36.8907 15.9249C37.3907 15.0249 38.1907 14.2249 39.0907 13.7249C39.9907 13.2249 40.8907 13.0249 41.9907 13.0249C42.7907 13.0249 43.4907 13.2249 44.1907 13.5249C44.8907 13.8249 45.4907 14.2249 45.9907 14.8249C46.4907 15.3249 46.9907 16.0249 47.2907 16.7249C47.5907 17.4249 47.7907 18.2249 47.7907 19.0249C47.7907 19.4249 47.5907 19.6249 47.3907 19.9249C47.1907 20.2249 46.7907 20.2249 46.3907 20.2249H37.6907L36.9907 18.0249H45.3907L44.7907 18.3249V17.7249C44.6907 17.3249 44.5907 16.9249 44.2907 16.5249C43.9907 16.1249 43.6907 15.9249 43.1907 15.7249C42.7907 15.5249 42.2907 15.4249 41.8907 15.4249C41.3907 15.4249 40.9907 15.5249 40.5907 15.6249C40.1907 15.7249 39.7907 15.9249 39.5907 16.2249C39.2907 16.5249 39.0907 16.9249 38.8907 17.4249C38.6907 17.9249 38.5907 18.5249 38.5907 19.2249C38.5907 20.0249 38.7907 20.7249 39.0907 21.3249C39.4907 21.9249 39.8907 22.3249 40.3907 22.6249C40.8907 22.9249 41.4907 23.0249 42.0907 23.0249C42.5907 23.0249 43.0907 22.9249 43.3907 22.8249C43.6907 22.7249 43.9907 22.6249 44.1907 22.5249C44.3907 22.4249 44.5907 22.3249 44.6907 22.2249C44.9907 22.0249 45.1907 22.0249 45.4907 22.0249C45.7907 22.0249 46.0907 22.1249 46.3907 22.3249C46.5907 22.5249 46.6907 22.8249 46.6907 23.1249C46.6907 23.5249 46.4907 23.9249 46.0907 24.2249C45.6907 24.5249 45.0907 24.8249 44.3907 25.0249C43.8907 25.1249 43.0907 25.4249 42.3907 25.4249Z" fill="white"/>
<path d="M59.8909 8.625C60.2909 8.625 60.5909 8.725 60.8909 9.025C61.1909 9.325 61.2909 9.625 61.2909 10.025V23.925C61.2909 24.325 61.1909 24.625 60.8909 24.825C60.5909 25.125 60.2909 25.225 59.8909 25.225C59.4909 25.225 59.1909 25.125 58.8909 24.825C58.5909 24.525 58.4909 24.225 58.4909 23.925V22.725L58.9909 22.925C58.9909 23.125 58.8909 23.325 58.6909 23.625C58.4909 23.925 58.1909 24.125 57.7909 24.425C57.3909 24.725 56.9909 24.925 56.4909 25.125C55.9909 25.325 55.4909 25.425 54.8909 25.425C53.7909 25.425 52.8909 25.125 51.9909 24.625C51.0909 24.125 50.4909 23.325 49.9909 22.425C49.4909 21.525 49.1909 20.425 49.1909 19.225C49.1909 18.025 49.4909 16.925 49.9909 16.025C50.4909 15.125 51.1909 14.325 51.9909 13.825C52.8909 13.325 53.7909 13.025 54.7909 13.025C55.3909 13.025 55.9909 13.125 56.5909 13.325C57.0909 13.525 57.5909 13.725 58.0909 14.025C58.4909 14.325 58.7909 14.625 58.9909 14.925C59.1909 15.225 59.2909 15.525 59.2909 15.725L58.4909 16.025V10.025C58.4909 9.625 58.5909 9.325 58.8909 9.125C59.1909 8.725 59.4909 8.625 59.8909 8.625ZM55.2909 22.925C55.8909 22.925 56.4909 22.725 57.0909 22.425C57.5909 22.125 57.9909 21.625 58.2909 21.125C58.5909 20.525 58.6909 19.925 58.6909 19.225C58.6909 18.525 58.4909 17.825 58.2909 17.225C57.9909 16.625 57.5909 16.225 57.0909 15.825C56.5909 15.525 55.9909 15.325 55.2909 15.325C54.6909 15.325 54.0909 15.525 53.5909 15.825C53.0909 16.125 52.6909 16.625 52.3909 17.225C52.0909 17.825 51.9909 18.425 51.9909 19.225C51.9909 19.925 52.1909 20.525 52.3909 21.125C52.6909 21.725 53.0909 22.125 53.5909 22.425C54.0909 22.825 54.5909 22.925 55.2909 22.925Z" fill="white"/>
<path d="M65.3907 11.7249C64.8907 11.7249 64.4907 11.6249 64.2907 11.4249C64.0907 11.2249 63.9907 10.9249 63.9907 10.5249V10.1249C63.9907 9.7249 64.0907 9.4249 64.3907 9.2249C64.5907 9.1249 64.9907 9.0249 65.4907 9.0249C65.9907 9.0249 66.3907 9.1249 66.5907 9.3249C66.7907 9.5249 66.8907 9.8249 66.8907 10.2249V10.6249C66.8907 11.0249 66.7907 11.3249 66.5907 11.5249C66.3907 11.6249 65.9907 11.7249 65.3907 11.7249ZM66.7907 23.8249C66.7907 24.2249 66.6907 24.5249 66.3907 24.7249C66.0907 25.0249 65.7907 25.1249 65.3907 25.1249C64.9907 25.1249 64.6907 25.0249 64.3907 24.7249C64.0907 24.4249 63.9907 24.1249 63.9907 23.8249V14.6249C63.9907 14.2249 64.0907 13.9249 64.3907 13.7249C64.6907 13.4249 64.9907 13.3249 65.3907 13.3249C65.7907 13.3249 66.0907 13.4249 66.3907 13.7249C66.6907 14.0249 66.7907 14.3249 66.7907 14.6249V23.8249Z" fill="white"/>
<path d="M75.4909 13.0249C76.5909 13.0249 77.4909 13.3249 78.3909 13.8249C79.2909 14.3249 79.8909 15.1249 80.3909 16.0249C80.8909 16.9249 81.1909 18.0249 81.1909 19.2249C81.1909 20.4249 80.8909 21.5249 80.3909 22.4249C79.8909 23.3249 79.1909 24.1249 78.3909 24.6249C77.5909 25.1249 76.5909 25.4249 75.5909 25.4249C74.9909 25.4249 74.3909 25.3249 73.8909 25.1249C73.3909 24.9249 72.8909 24.7249 72.4909 24.4249C72.0909 24.1249 71.7909 23.8249 71.5909 23.5249C71.3909 23.2249 71.2909 22.9249 71.2909 22.7249L71.9909 22.4249V28.3249C71.9909 28.7249 71.8909 29.0249 71.5909 29.2249C71.2909 29.5249 70.9909 29.6249 70.5909 29.6249C70.1909 29.6249 69.8909 29.5249 69.5909 29.2249C69.2909 28.9249 69.1909 28.6249 69.1909 28.2249V14.5249C69.1909 14.1249 69.2909 13.8249 69.5909 13.6249C69.8909 13.3249 70.1909 13.2249 70.5909 13.2249C70.9909 13.2249 71.2909 13.3249 71.5909 13.6249C71.8909 13.9249 71.9909 14.2249 71.9909 14.5249V15.6249L71.5909 15.4249C71.5909 15.2249 71.6909 15.0249 71.8909 14.7249C72.0909 14.4249 72.3909 14.2249 72.7909 13.9249C73.1909 13.6249 73.5909 13.4249 74.0909 13.2249C74.4909 13.0249 74.8909 13.0249 75.4909 13.0249ZM75.1909 15.4249C74.5909 15.4249 73.9909 15.6249 73.3909 15.9249C72.8909 16.2249 72.4909 16.7249 72.1909 17.2249C71.8909 17.8249 71.7909 18.4249 71.7909 19.1249C71.7909 19.8249 71.9909 20.4249 72.1909 21.0249C72.4909 21.6249 72.8909 22.0249 73.3909 22.4249C73.8909 22.7249 74.4909 22.9249 75.1909 22.9249C75.7909 22.9249 76.3909 22.7249 76.9909 22.4249C77.4909 22.1249 77.8909 21.6249 78.1909 21.0249C78.4909 20.4249 78.5909 19.8249 78.5909 19.1249C78.5909 18.4249 78.3909 17.7249 78.1909 17.2249C77.8909 16.7249 77.5909 16.2249 76.9909 15.9249C76.3909 15.6249 75.7909 15.4249 75.1909 15.4249Z" fill="white"/>
<path d="M83.5905 13.425H88.9905C89.3905 13.425 89.5905 13.525 89.8905 13.825C90.1905 14.125 90.2905 14.325 90.2905 14.725C90.2905 15.125 90.1905 15.325 89.8905 15.525C89.5905 15.725 89.3905 15.925 88.9905 15.925H83.5905C83.1905 15.925 82.9905 15.825 82.6905 15.525C82.3905 15.225 82.2905 15.025 82.2905 14.625C82.2905 14.225 82.3905 14.025 82.6905 13.825C82.8905 13.525 83.1905 13.425 83.5905 13.425ZM85.9905 10.625C86.3905 10.625 86.6905 10.725 86.9905 11.025C87.2905 11.325 87.3905 11.625 87.3905 11.925V21.925C87.3905 22.125 87.4905 22.325 87.4905 22.425C87.5905 22.625 87.6905 22.625 87.7905 22.725C87.8905 22.825 88.0905 22.825 88.2905 22.825C88.4905 22.825 88.6905 22.725 88.7905 22.725C88.9905 22.625 89.0905 22.625 89.2905 22.625C89.4905 22.625 89.6905 22.725 89.8905 22.925C90.0905 23.125 90.1905 23.425 90.1905 23.725C90.1905 24.125 89.9905 24.425 89.4905 24.825C88.9905 25.125 88.4905 25.225 87.9905 25.225C87.6905 25.225 87.2905 25.225 86.8905 25.125C86.4905 25.025 86.0905 24.925 85.7905 24.725C85.4905 24.525 85.1905 24.225 84.8905 23.825C84.6905 23.425 84.5905 22.825 84.5905 22.125V12.025C84.5905 11.625 84.6905 11.325 84.9905 11.125C85.1905 10.825 85.5905 10.625 85.9905 10.625Z" fill="white"/>
<path d="M32.1904 12.825C31.1904 9.925 29.2904 8.725 27.7904 8.225C25.1904 7.325 22.2904 8.025 20.0904 8.825C19.2904 6.125 17.7904 3.025 14.9904 1.225C12.6904 -0.175 10.0904 -0.375 7.19042 0.625C-0.109575 3.225 -0.909575 11.225 0.690425 18.025C0.890425 18.625 1.29043 19.225 1.89043 19.525C2.49043 19.825 3.19043 19.925 3.89043 19.725C5.19042 19.225 5.79043 18.025 5.49043 16.825C4.79043 13.925 3.69043 6.925 8.79043 5.225C10.2904 4.725 11.3904 4.725 12.3904 5.325C14.7904 6.725 15.7904 11.225 15.9904 12.625L16.1904 13.825C16.2904 14.325 16.5904 14.825 17.0904 15.125C17.5904 15.325 18.1904 15.325 18.6904 15.025L19.6904 14.425C20.9904 13.625 24.2904 12.125 26.1904 12.825C26.5904 13.025 27.1904 13.325 27.4904 14.425C28.7904 18.125 24.3904 21.825 22.3904 23.325C21.3904 24.025 21.0904 25.425 21.7904 26.525C22.1904 27.125 22.6904 27.425 23.3904 27.625C23.5904 27.725 23.6904 27.725 23.8904 27.725C24.3904 27.725 24.9904 27.525 25.3904 27.225C28.1904 25.025 34.4904 19.625 32.1904 12.825Z" fill="white"/>
<path d="M16.3905 24.5251H13.8905V22.1251C13.8905 20.8251 12.7905 19.7251 11.4905 19.7251C10.1905 19.7251 9.09053 20.8251 9.09053 22.1251V24.5251H6.69053C5.39053 24.5251 4.29053 25.6251 4.29053 26.9251C4.29053 28.2251 5.39053 29.3251 6.69053 29.3251H9.09053V31.7251C9.09053 33.0251 10.1905 34.1251 11.4905 34.1251C12.7905 34.1251 13.8905 33.0251 13.8905 31.7251V29.3251H16.3905C17.6905 29.3251 18.7905 28.2251 18.7905 26.9251C18.7905 25.6251 17.7905 24.5251 16.3905 24.5251Z" fill="white"/>
</svg>
