<svg id="Layer_1" data-name="Layer 1" xmlns="http://www.w3.org/2000/svg" viewBox="0 0 90.29 34.12"><defs><style>.cls-1{fill:#009899;}.cls-2{fill:#ff3e49;}</style></defs><title>Medipt</title><path class="cls-1" d="M43.6,25.4a7.42,7.42,0,0,1-3.4-.8A5.19,5.19,0,0,1,38,22.4a6.5,6.5,0,0,1-.8-3.1,6.16,6.16,0,0,1,.9-3.4,5.81,5.81,0,0,1,2.2-2.2,5.66,5.66,0,0,1,2.9-.7,5.45,5.45,0,0,1,2.2.5,4.63,4.63,0,0,1,1.8,1.3,6.41,6.41,0,0,1,1.3,1.9A5.93,5.93,0,0,1,49,19a1.49,1.49,0,0,1-.4.9c-.2.3-.6.3-1,.3H38.9L38.2,18h8.4l-.6.3v-.6a3.08,3.08,0,0,0-.5-1.2,2.26,2.26,0,0,0-1.1-.8,3.08,3.08,0,0,0-1.3-.3,5.07,5.07,0,0,0-1.3.2,1.7,1.7,0,0,0-1,.6,3.46,3.46,0,0,0-.7,1.2,4.84,4.84,0,0,0-.3,1.8,4.65,4.65,0,0,0,.5,2.1,4,4,0,0,0,1.3,1.3,3.29,3.29,0,0,0,1.7.4,4.44,4.44,0,0,0,1.3-.2,6.89,6.89,0,0,0,.8-.3,2.19,2.19,0,0,0,.5-.3,1.2,1.2,0,0,1,.8-.2,1.61,1.61,0,0,1,.9.3,1.14,1.14,0,0,1,.3.8,1.38,1.38,0,0,1-.6,1.1,5.39,5.39,0,0,1-1.7.8A10.08,10.08,0,0,1,43.6,25.4Z" transform="translate(-1.21 0.03)"/><path class="cls-1" d="M61.1,8.6A1.37,1.37,0,0,1,62.5,10V23.9a1,1,0,0,1-.4.9,1.45,1.45,0,0,1-2,0,1.22,1.22,0,0,1-.4-.9V22.7l.5.2a1.33,1.33,0,0,1-.3.7,3.63,3.63,0,0,1-.9.8,5.39,5.39,0,0,1-1.3.7,4.15,4.15,0,0,1-1.6.3,5.74,5.74,0,0,1-2.9-.8,5.32,5.32,0,0,1-2-2.2,6.8,6.8,0,0,1,0-6.4,6.09,6.09,0,0,1,2-2.2,5.39,5.39,0,0,1,4.6-.5,10.09,10.09,0,0,1,1.5.7,3.82,3.82,0,0,1,.9.9,1.6,1.6,0,0,1,.3.8l-.8.3V10a1,1,0,0,1,.4-.9A1.11,1.11,0,0,1,61.1,8.6ZM56.5,22.9a4.07,4.07,0,0,0,1.8-.5,3.74,3.74,0,0,0,1.2-1.3,4.06,4.06,0,0,0,.4-1.9,6.47,6.47,0,0,0-.4-2,4.07,4.07,0,0,0-1.2-1.4,3.45,3.45,0,0,0-1.8-.5,3.37,3.37,0,0,0-1.7.5,3.33,3.33,0,0,0-1.2,1.4,4.21,4.21,0,0,0-.4,2,5.85,5.85,0,0,0,.4,1.9,3,3,0,0,0,1.2,1.3A2.46,2.46,0,0,0,56.5,22.9Z" transform="translate(-1.21 0.03)"/><path class="cls-1" d="M66.6,11.7a1.61,1.61,0,0,1-1.1-.3,1.22,1.22,0,0,1-.3-.9v-.4a1,1,0,0,1,.4-.9A2.68,2.68,0,0,1,66.7,9a1.61,1.61,0,0,1,1.1.3,1.22,1.22,0,0,1,.3.9v.4a1.22,1.22,0,0,1-.3.9A2.87,2.87,0,0,1,66.6,11.7ZM68,23.8a1,1,0,0,1-.4.9,1.45,1.45,0,0,1-2,0,1.22,1.22,0,0,1-.4-.9V14.6a1,1,0,0,1,.4-.9,1.45,1.45,0,0,1,2,0,1.22,1.22,0,0,1,.4.9Z" transform="translate(-1.21 0.03)"/><path class="cls-1" d="M76.7,13a5.74,5.74,0,0,1,2.9.8,5.32,5.32,0,0,1,2,2.2,6.8,6.8,0,0,1,0,6.4,6.09,6.09,0,0,1-2,2.2,5.38,5.38,0,0,1-2.8.8,4.67,4.67,0,0,1-1.7-.3,6.11,6.11,0,0,1-1.4-.7,3.82,3.82,0,0,1-.9-.9,1.6,1.6,0,0,1-.3-.8l.7-.3v5.9a1,1,0,0,1-.4.9,1.4,1.4,0,0,1-2.4-1V14.5a1,1,0,0,1,.4-.9,1.45,1.45,0,0,1,2,0,1.22,1.22,0,0,1,.4.9v1.1l-.4-.2a1.33,1.33,0,0,1,.3-.7,3.63,3.63,0,0,1,.9-.8,5.39,5.39,0,0,1,1.3-.7A3,3,0,0,1,76.7,13Zm-.3,2.4a4.07,4.07,0,0,0-1.8.5,3.74,3.74,0,0,0-1.2,1.3,4.06,4.06,0,0,0-.4,1.9,5.85,5.85,0,0,0,.4,1.9,4.07,4.07,0,0,0,1.2,1.4,3.45,3.45,0,0,0,1.8.5,4.07,4.07,0,0,0,1.8-.5A3.33,3.33,0,0,0,79.4,21a4.06,4.06,0,0,0,.4-1.9,5.33,5.33,0,0,0-.4-1.9,3,3,0,0,0-1.2-1.3A4.07,4.07,0,0,0,76.4,15.4Z" transform="translate(-1.21 0.03)"/><path class="cls-1" d="M84.8,13.4h5.4a1.09,1.09,0,0,1,.9.4,1.09,1.09,0,0,1,.4.9.81.81,0,0,1-.4.8,1.49,1.49,0,0,1-.9.4H84.8a1.09,1.09,0,0,1-.9-.4,1.09,1.09,0,0,1-.4-.9.81.81,0,0,1,.4-.8A1,1,0,0,1,84.8,13.4Zm2.4-2.8a1.28,1.28,0,0,1,1,.4,1.22,1.22,0,0,1,.4.9v10a4.33,4.33,0,0,0,.1.5c.1.2.2.2.3.3a.75.75,0,0,0,.5.1,4.33,4.33,0,0,0,.5-.1.9.9,0,0,1,.5-.1.86.86,0,0,1,.6.3,1.14,1.14,0,0,1,.3.8c0,.4-.2.7-.7,1.1a2.82,2.82,0,0,1-1.5.4,4.48,4.48,0,0,1-1.1-.1,3.58,3.58,0,0,1-1.1-.4,3.82,3.82,0,0,1-.9-.9,4,4,0,0,1-.3-1.7V12a1,1,0,0,1,.4-.9A1.23,1.23,0,0,1,87.2,10.6Z" transform="translate(-1.21 0.03)"/><path class="cls-1" d="M33.4,12.8A6.91,6.91,0,0,0,29,8.2c-2.6-.9-5.5-.2-7.7.6C20.5,6.1,19,3,16.2,1.2A8.81,8.81,0,0,0,8.4.6C1.1,3.2.3,11.2,1.9,18a2.55,2.55,0,0,0,1.2,1.5,2.75,2.75,0,0,0,2,.2,2.43,2.43,0,0,0,1.6-2.9C6,13.9,4.9,6.9,10,5.2a4.06,4.06,0,0,1,3.6.1c2.4,1.4,3.4,5.9,3.6,7.3l.2,1.2a2,2,0,0,0,.9,1.3,1.81,1.81,0,0,0,1.6-.1l1-.6c1.3-.8,4.6-2.3,6.5-1.6a2.21,2.21,0,0,1,1.3,1.6c1.3,3.7-3.1,7.4-5.1,8.9a2.35,2.35,0,0,0-.6,3.2,2.61,2.61,0,0,0,1.6,1.1.9.9,0,0,0,.5.1,2.69,2.69,0,0,0,1.5-.5C29.4,25,35.7,19.6,33.4,12.8Z" transform="translate(-1.21 0.03)"/><path class="cls-2" d="M17.6,24.5H15.1V22.1a2.4,2.4,0,1,0-4.8,0v2.4H7.9a2.4,2.4,0,0,0,0,4.8h2.4v2.4a2.4,2.4,0,0,0,4.8,0V29.3h2.5A2.43,2.43,0,0,0,20,26.9,2.37,2.37,0,0,0,17.6,24.5Z" transform="translate(-1.21 0.03)"/></svg>